<svg width="66" height="88" viewBox="0 0 66 88" fill="none" xmlns="http://www.w3.org/2000/svg">
<path fill-rule="evenodd" clip-rule="evenodd" d="M32.7564 19.904C32.9905 19.8591 33.3854 19.8293 33.7962 20.0276C34.105 20.1767 34.382 20.431 34.5583 20.6C34.7755 20.8083 35.0241 21.0724 35.2936 21.3755C35.8349 21.9842 36.5094 22.8049 37.2681 23.776C38.7878 25.7213 40.6809 28.3154 42.5807 31.1232C44.48 33.93 46.397 36.9664 47.959 39.7941C49.5063 42.5954 50.7585 45.2857 51.2572 47.3727C52.2558 51.5514 51.208 56.6118 49.8088 60.5154C49.101 62.4901 48.2776 64.2406 47.5138 65.5192C47.1349 66.1534 46.7481 66.7099 46.3731 67.1258C46.1872 67.332 45.9725 67.5394 45.7323 67.7051C45.5178 67.8531 45.1299 68.0756 44.6267 68.0756C43.9977 68.0756 43.5042 67.7801 43.1928 67.542C42.8634 67.2902 42.5643 66.9681 42.3009 66.6502C41.8532 66.1097 41.3722 65.4097 40.8989 64.721C40.8195 64.6054 40.7404 64.4902 40.6616 64.3761C40.0907 63.5492 39.5092 62.7312 38.8975 62.035C38.2765 61.3282 37.7007 60.8371 37.1751 60.5832C35.8157 59.9268 34.8237 59.7473 33.7831 59.9172C32.6688 60.0991 31.3395 60.7056 29.3689 61.9743C28.5214 62.5199 27.511 63.6409 26.3893 64.9073L26.3569 64.9439C25.8377 65.5301 25.302 66.1348 24.7987 66.6394C24.3108 67.1285 23.7337 67.649 23.1316 67.9398C22.3847 68.3004 21.6451 68.0735 21.1993 67.8542C20.7217 67.6194 20.2689 67.2502 19.8571 66.8326C19.0223 65.9861 18.1418 64.7209 17.3405 63.1442C15.7305 59.9763 14.3477 55.369 14.3477 49.8689C14.3477 46.9483 15.438 43.5863 16.99 40.282C18.5539 36.9521 20.6439 33.5623 22.7677 30.551C24.8919 27.5391 27.0718 24.8752 28.8326 22.9976C29.7084 22.0637 30.5073 21.2955 31.1617 20.7735C31.4825 20.5176 31.8172 20.2813 32.1415 20.1197C32.3026 20.0394 32.514 19.9505 32.7564 19.904ZM19.4166 41.345C17.9215 44.5282 17.0123 47.4928 17.0123 49.8689C17.0123 54.9623 18.2956 59.1829 19.7326 62.0105C20.4548 63.4316 21.1931 64.4561 21.7866 65.0579C21.966 65.2398 22.1142 65.3648 22.2272 65.4471C22.3925 65.3179 22.6088 65.1257 22.8797 64.854C23.3275 64.4052 23.8197 63.8496 24.3644 63.2346L24.4362 63.1535C25.4498 62.0088 26.6939 60.6038 27.8908 59.8332C29.9288 58.5211 31.6465 57.6562 33.3389 57.3799C35.1049 57.0915 36.6792 57.4667 38.3668 58.2816C39.3646 58.7635 40.2172 59.5597 40.9293 60.3702C41.6507 61.1912 42.3069 62.1205 42.8787 62.9487C42.9649 63.0737 43.0487 63.1955 43.1303 63.3141C43.6111 64.013 44.0145 64.5995 44.3816 65.0426C44.4384 65.1111 44.4909 65.172 44.5392 65.2258C44.7283 64.985 44.954 64.6546 45.2057 64.2333C45.8701 63.1211 46.6274 61.5243 47.2908 59.6736C48.6339 55.9264 49.4905 51.4233 48.6609 47.9513C48.2454 46.2129 47.1362 43.772 45.608 41.0053C44.0943 38.265 42.2216 35.2966 40.3502 32.5309C38.4793 29.7661 36.6207 27.2199 35.141 25.3259C34.4 24.3774 33.7628 23.6038 33.2722 23.0521C33.1503 22.9151 33.0404 22.795 32.9426 22.6916C32.9158 22.7123 32.8878 22.7342 32.8586 22.7575C32.3466 23.166 31.6457 23.8312 30.8076 24.725C29.1405 26.5026 27.0355 29.071 24.97 31.9996C22.9042 34.9287 20.8997 38.1873 19.4166 41.345Z" fill="#2E2D2D"/>
<path fill-rule="evenodd" clip-rule="evenodd" d="M32.5694 0.0602038C32.9834 -0.0216878 33.6822 -0.0760306 34.409 0.285686C34.9552 0.55755 35.4454 1.02126 35.7572 1.3294C36.1416 1.70929 36.5813 2.19087 37.0582 2.74361C38.0159 3.85355 39.2092 5.35013 40.5516 7.12098C43.2403 10.6682 46.5895 15.3987 49.9508 20.5188C53.311 25.6371 56.7027 31.174 59.4662 36.3305C62.2037 41.4386 64.4192 46.3445 65.3015 50.1501C67.0682 57.7702 65.2144 66.9981 62.7389 74.1163C61.4867 77.7172 60.0299 80.9093 58.6785 83.241C58.0082 84.3974 57.3237 85.4121 56.6604 86.1705C56.3314 86.5466 55.9516 86.9248 55.5266 87.227C55.1472 87.4968 54.4608 87.9026 53.5707 87.9026C52.4578 87.9026 51.5846 87.3637 51.0336 86.9295C50.4508 86.4703 49.9217 85.883 49.4558 85.3033C48.6637 84.3177 47.8126 83.0412 46.9753 81.7853C46.8348 81.5746 46.6948 81.3645 46.5554 81.1565C45.5454 79.6485 44.5165 78.157 43.4343 76.8874C42.3356 75.5985 41.317 74.7029 40.387 74.24C37.9818 73.043 36.2268 72.7156 34.3858 73.0254C32.4144 73.3572 30.0625 74.4631 26.576 76.7767C25.0767 77.7716 23.2889 79.8157 21.3044 82.125L21.247 82.1918C20.3285 83.2607 19.3808 84.3635 18.4903 85.2836C17.627 86.1755 16.6061 87.1247 15.5408 87.6549C14.2194 88.3126 12.9108 87.8987 12.122 87.4989C11.2771 87.0706 10.476 86.3975 9.74739 85.6359C8.27049 84.0924 6.71276 81.7852 5.29508 78.9101C2.44662 73.1332 0 64.7318 0 54.7022C0 49.3764 1.9291 43.2456 4.67484 37.2202C7.44186 31.148 11.1395 24.9666 14.897 19.4753C18.6552 13.9832 22.5118 9.12536 25.6271 5.70148C27.1767 3.99847 28.5901 2.59777 29.7478 1.64588C30.3155 1.17913 30.9076 0.748348 31.4814 0.453552C31.7665 0.307123 32.1405 0.145024 32.5694 0.0602038ZM8.96814 39.1585C6.32298 44.9633 4.71431 50.3693 4.71431 54.7022C4.71431 63.99 6.98472 71.6864 9.52715 76.8426C10.8049 79.434 12.1111 81.3023 13.1612 82.3997C13.4786 82.7315 13.7408 82.9593 13.9407 83.1094C14.2332 82.8738 14.6158 82.5233 15.0952 82.028C15.8874 81.2094 16.7582 80.1963 17.7219 79.0748L17.849 78.9269C19.6422 76.8396 21.8433 74.2775 23.961 72.8723C27.5666 70.4796 30.6056 68.9025 33.5998 68.3986C36.7244 67.8728 39.5096 68.557 42.4953 70.043C44.2608 70.9216 45.7692 72.3736 47.029 73.8515C48.3053 75.3487 49.4664 77.0433 50.478 78.5536C50.6305 78.7814 50.7788 79.0036 50.9232 79.2198C51.7737 80.4942 52.4875 81.5638 53.137 82.3719C53.2374 82.4968 53.3303 82.6077 53.4159 82.7058C53.7503 82.2668 54.1497 81.6644 54.595 80.896C55.7705 78.8679 57.1103 75.9562 58.284 72.5814C60.6603 65.7481 62.1758 57.5367 60.708 51.2053C59.973 48.0352 58.0105 43.5843 55.3067 38.539C52.6287 33.5421 49.3155 28.1292 46.0044 23.0857C42.6945 18.044 39.4061 13.4009 36.7882 9.94723C35.4772 8.21764 34.3499 6.80696 33.4819 5.80092C33.2662 5.551 33.0717 5.33207 32.8987 5.14343C32.8513 5.1812 32.8018 5.22126 32.7501 5.26372C31.8442 6.00859 30.6043 7.22169 29.1214 8.85144C26.172 12.0931 22.4477 16.7766 18.7934 22.1169C15.1384 27.4582 11.592 33.4005 8.96814 39.1585ZM33.6722 4.60971L33.664 4.6133L33.6722 4.60971Z" fill="#2E2D2D"/>
</svg>
